<svg width="512" height="512" viewBox="0 0 1080 1080"><path d="M515.6 29c-21.1 1.5-59.4 7.7-73.1 11.9-49.2 15.1-81.4 30-116.5 53.9-27 18.4-39.6 29.3-62.3 53.9-25.3 27.4-41.5 50.4-58 82.3-25.3 48.7-39.6 101.5-42.2 155.5-.3 6.6-.8 14.3-1.1 17.2l-.5 5.2-13.7-12.5c-16.3-14.9-18.9-16.5-28-16.6-8.3-.1-12.3 1.5-18.5 7.6-6.2 6-8.6 11.4-8.7 19.2 0 5 .5 6.8 3.1 11 3.7 5.8 82.5 84.8 88.6 88.9 4 2.6 4.9 2.7 12 2.3 4.7-.3 9.2-1.2 11.3-2.2 4-2.1 74.4-71.7 82.9-82.1 7.2-8.7 9.1-12.3 9.1-17.4 0-5.3-3.2-13.7-7-18.3-1.7-2-5.5-4.9-8.6-6.4-4.8-2.3-6.3-2.6-12.2-2.2-10.7.8-14.2 3.1-35 22.9-10.3 9.8-19.3 17.9-20.1 17.9-1.2 0-1.3-3.2-.8-20.3 3-91.2 36.2-166.7 100.8-229.2 33.1-32 73.7-56.7 117.9-71.6 35.4-12 66.7-17.2 104-17.3 40.6 0 71.5 5 105.5 17.3 20.4 7.3 25 9.2 39 16.1 39.1 19.1 70.5 43.6 101.6 79 41.1 46.8 68.5 109.3 76.5 174.4 2.2 17.9 2.2 55.5-.1 73.1-7.2 55.8-26.1 105.7-57 150.4-17.3 24.9-44.3 52.6-70.3 71.9-101.7 75.4-233.6 86-345.8 27.8-25.7-13.4-43.5-26.6-73.8-54.7-32.3-30-32.8-30.3-41.7-30.3-7.3.1-13.6 3.2-19 9.2-5.4 6.1-7.9 11.5-7.9 17.5 0 9.8 4.4 15.8 30.2 41.3 25 24.7 35.5 33.3 59.8 48.6 50.9 32.1 100.3 49.5 162.5 57.4 19.8 2.5 65.4 2.5 85 0 36.5-4.7 65.1-12.1 99.7-26 30.1-12.2 68.5-34.5 93.3-54.5 10.6-8.4 51.1-49.3 59.7-60.1 29.3-37.1 52.9-83.4 66.7-131 16.8-58.2 19.2-119.8 6.9-179.5-16.8-81.9-61.7-158.6-123.3-210.6-51.8-43.7-112.5-72.7-178-85.3-26.9-5.1-65.5-7.5-92.9-5.6z"/><path d="M533.5 200.2c-4.9 1.7-9.2 5.5-11.4 10.1-2.1 4.3-2.1 5.2-2.1 75.8v71.4l2.3 3.9c1.2 2.2 3.9 5.3 6 7 3.6 2.9 4.5 3.1 11.5 3.1 8.6 0 11.9-1.6 17-8.2l2.7-3.6.3-72.9c.2-71.2.2-72.9-1.8-76.7-4.4-8.7-15.4-13.1-24.5-9.9z"/><path d="M474 235.1c-5.5 1-27.8 12-37.7 18.6-56.7 37.5-89 104.1-83.4 171.5 6.6 80 61 145.4 138.6 166.7 29.2 8 64.4 8.2 94.7.6 55.8-14.2 102.6-53.7 125.6-106.1 18.9-42.9 21.2-91.5 6.6-135.2-16.1-48-49.2-86-94.4-108.7-5.8-2.9-12.3-5.8-14.4-6.5-17.1-5.5-34.1 7.6-32.2 24.8.7 6.2 3.3 11.6 7.3 15.3 1.5 1.5 7.8 5.1 13.8 8.1 12.2 6.1 19.4 10.5 27.2 16.6 20.7 16.5 35.9 37 45 61.2 9.2 24.2 10.8 55.9 4.2 82.5-8.9 35.6-34.5 69.2-66.5 87.1-12 6.7-31 13.6-43.8 15.9-9.1 1.6-25.4 2.2-35.7 1.4-41.4-3.3-77.9-24.1-102.4-58.4-29.9-41.7-33.7-97.7-9.9-144.7 6.7-13.3 21-31.2 32.4-40.7 12-10 20.1-15.1 37-23.1 8.1-3.9 11.6-7.1 14.6-13.5 5.6-11.7.5-25.9-11-31-6.5-2.9-10-3.4-15.6-2.4zM363.7 850c-10.3 2.6-20.8 11.4-25.3 21.3-2.5 5.4-2.9 7.4-2.9 15.2 0 8 .3 9.7 3.1 15.5 13.5 28.4 52.7 29 66.9 1.1 9.3-18.5.9-41.9-18.3-50.8-5.9-2.8-17.2-3.9-23.5-2.3zm18.2 20c9.5 6.7 9.5 26.3 0 33.1-4.6 3.3-14.4 3.4-18.6.3-11.3-8.4-10.9-26.3.7-34.2 4.6-3.1 13-2.8 17.9.8zM608.2 850.9c-10.5 3.6-16.1 11.4-16.2 22.6 0 11.6 5.2 16.7 22.8 22.3 10.7 3.5 13.6 5.8 11.1 8.8-2.5 3-16.9.5-25.7-4.6l-3.2-1.9-4 7.9c-2.2 4.4-4 8.4-4 9 0 1.7 9.5 5.5 18.4 7.5 13.8 3.1 27.3 1 34-5.3 7.9-7.4 8.8-22.7 1.8-30.5-2.4-2.7-11.5-7.1-19.9-9.6-8.8-2.6-12.3-5.2-10.7-7.8.8-1.2 2.6-1.9 5.7-2.1 4.2-.3 8.3 1 18.3 5.4 1 .4 9.4-13.4 9.4-15.4 0-.8-11.9-5.7-17.5-7.1-6-1.6-14.3-1.3-20.3.8zM150.5 851.2c-4 11.3-24.5 70.7-24.5 71.2 0 .3 4.5.6 10 .6h9.9l2.1-7 2.1-7.1 10.2.3 10.2.3 1.9 6.7 2 6.8H194.7l-4.8-13.8c-2.6-7.5-8.3-23.9-12.6-36.4l-7.8-22.8h-9.3c-6.5 0-9.4.4-9.7 1.2zm14.4 37l1.9 6.8h-13.5l2.9-9.8c1.5-5.3 3.1-10.4 3.5-11.2.6-1.5 1.3.5 5.2 14.2zM197.7 850.7c-1.1 1-.8 37.2.4 44.2 1.4 8.9 4.3 15.1 9.2 19.9 6.6 6.4 12.5 8.6 23.2 8.7 8.3 0 9.6-.3 15.8-3.3 5-2.5 7.7-4.6 10.2-8 6.1-8.5 6.8-12 7.3-38.5l.4-23.7h-20l-.4 22.7c-.2 18.8-.6 23.3-1.9 25.8-3 5.5-5.6 7-11.6 7-4.9 0-5.8-.3-8.3-3.1-4-4.6-5-10.9-5-32.9V850h-9.3c-5.2 0-9.7.3-10 .7zM270 858.5v8.5h21v56h20l.2-27.8.3-27.7 10.8-.3 10.7-.3V850h-63v8.5zM461 886.5V923h20v-22h8.5l6.1 10.8 6.1 10.7 11.2.3c6.1.1 11.1.1 11.1-.2 0-.2-3.1-5.9-7-12.6-3.8-6.7-7-12.7-7-13.2 0-.6 1.6-2.8 3.5-4.9 10.9-12.1 6.6-32.2-8.6-39.9-3.4-1.8-5.9-2-23.9-2h-20v36.5zm35.8-17.9c1.7 1.2 2.2 2.5 2.2 6.1 0 7-1.7 8.3-10.7 8.3H481v-7.3c0-4.1.3-7.7.7-8 1.3-1.4 12.8-.7 15.1.9zM531 886.5V923h53.1l-.3-8.3-.3-8.2-16-.5-16-.5-.3-5.8-.3-5.7H578v-15.9l-13.2-.3-13.3-.3v-10l15.8-.3 15.7-.3V850h-52v36.5zM652 858.5v8.5h21v56h20l.2-27.8.3-27.7 10.3-.3 10.2-.3V850h-62v8.5zM722.2 884.7c-6.6 19.2-12.4 35.6-12.8 36.6-.6 1.6.1 1.8 9.7 1.5l10.3-.3 2-6.8 1.9-6.7h20.4l1.9 6.7 2 6.8 10.3.3c9.6.3 10.3.1 9.6-1.5-1-2.7-24.5-70.6-24.5-71 0-.1-4.2-.3-9.4-.3h-9.3l-12.1 34.7zm24.8-.6c1.7 5.7 3 10.5 3 10.6 0 .2-2.9.3-6.5.3s-6.5-.3-6.5-.8c0-.4 1.4-5.2 3-10.6 1.7-5.5 3-10.2 3-10.4 0-2 1.5 2 4 10.9zM784.7 850.7c-.4.3-.7 16.8-.7 36.5V923h19.9l.3-10.8.3-10.7 4-.3 4-.3 6.3 11.1 6.3 11h11c6 0 10.9-.2 10.9-.5s-3.1-6-7-12.8c-3.8-6.7-7-12.7-7-13.3 0-.6 1.2-2.1 2.6-3.5 11.6-10.8 8.6-31.6-5.8-39.8l-5.3-3.1h-19.6c-10.8 0-19.9.3-20.2.7zm35.5 18c2.5 2.8 3 6 1.8 9.8-1.4 4.1-3.1 4.7-11.5 4.3l-6-.3-.3-6.4c-.2-3.5-.1-7 .2-7.7.9-2.2 13.9-1.9 15.8.3zM848 858.5v8.5h21v56h20l.2-27.8.3-27.7 10.8-.3 10.7-.3V850h-63v8.5zM417 894.5v8.5h33.1l-.3-8.3-.3-8.2-16.2-.3-16.3-.2v8.5zM728.7 958.7c-.4.3-.7 6.2-.7 13V984h31v-26h-14.8c-8.2 0-15.2.3-15.5.7zM242.3 961.1c-11.8 2-22.6 8.2-28.1 16.1-4.5 6.6-6.2 12.7-6.2 22.6 0 10.6 1.8 14.9 8.4 21 5.9 5.4 13.6 9.1 29.8 14.2 13.2 4.2 17.2 6.9 16.1 10.9-1.7 6.6-18.2 5-36.5-3.6-5.4-2.5-10-4.4-10.1-4.2-.2.2-3.2 6.4-6.7 13.7-7.2 15.1-7.6 13.5 3.8 18.2 30.9 13 64.4 10.5 76.7-5.5 5.4-7.1 6.9-12.2 7-22.5 0-8.4-.3-10.2-2.8-15.2-1.6-3.2-4.5-7.1-6.5-8.8-5.2-4.3-15.9-9.3-28.2-13-11.1-3.4-18-6.4-18-7.9 0-.5-.3-1.6-.6-2.4-.3-.9.4-2.5 1.5-3.6 4.2-4.2 17.6-2.3 31.5 4.5 3.8 1.9 7 3.3 7.1 3.1.1-.1 3.2-5.9 6.9-12.9l6.7-12.7-5.1-2.6c-7.7-3.9-21.6-8.2-30.3-9.4-8.7-1.2-9.1-1.2-16.4 0zM566 961.1c-15.2 2.6-28.2 13-32.1 26-1.7 5.5-2 8.8-1.7 14.7 1 16.6 9.3 24 35.8 32.2 13.7 4.3 17.8 6.4 18.6 9.6 1.2 4.5-1.5 5.9-10.9 5.8-8.7-.2-19.8-3.5-29.4-8.9-2.5-1.4-5-2.5-5.5-2.5s-3.8 6-7.3 13.2c-5 10.4-6.1 13.6-5.2 14.5 1.9 1.9 15.3 7.2 23.7 9.3 29.1 7.4 53.1 2.4 63.7-13.3 7.8-11.6 7-31.1-1.8-41.1-5-5.7-13.2-9.9-30.6-15.6-15.1-5-18.3-6.9-18.3-10.5 0-8.1 16.3-7.3 34.2 1.6l5.7 2.9 6.5-12.7c3.6-7 6.6-13 6.6-13.3-.1-.8-11.5-5.7-19.6-8.5-6.9-2.3-20.1-4.6-24.7-4.4-1.2.1-4.7.5-7.7 1zM100.7 961.7c-.4.3-.7 6.6-.7 13.9V989l16.8.2 16.7.3.3 43.8.2 43.8 15.8-.3 15.7-.3.3-43.8.2-43.7h33.1l-.3-13.8-.3-13.7-48.6-.3c-26.7-.1-48.9.1-49.2.5zM388.8 962.2c-1.6 1.4-82.8 113.3-82.8 114.2 0 .3 7.5.6 16.8.5h16.7l41-56.5c22.6-31.1 41.1-57.2 41.3-58 .5-1.9-30.6-2.1-33-.2zM437.7 961.7c-.4.3-.7 26.4-.7 58v57.3h83.1l-.3-13.7-.3-13.8-25.3-.3-25.3-.2.3-8.8.3-8.7 20.8-.3 20.7-.2v-25h-19.7c-10.9 0-20.4-.4-21.1-.9-.9-.5-1.2-2.9-1-8.2l.3-7.4 24.5-.5 24.5-.5.3-11.5c.1-6.3 0-12.5-.3-13.8l-.5-2.2h-39.9c-21.9 0-40.1.3-40.4.7zM635.7 961.6c-.4.4-.7 26.5-.7 58.1v57.3l42.3-.2 42.2-.3.3-11.5c.1-6.3 0-12.5-.3-13.8l-.5-2.2h-52l-.2-43.8-.3-43.7-15.1-.3c-8.2-.1-15.3.1-15.7.4zM882.7 964.6c-.4.4-.7 6.5-.7 13.5v12.8l-5.2.3-5.3.3v23l5.3.3 5.2.3v22.2c0 13.2.5 23.8 1.1 26.2 2.8 9.9 14.6 16.3 28 15.2 8.1-.7 22.4-4.4 23.9-6.2.7-.9.3-4.3-1.5-12-1.4-6-2.8-11.2-3.1-11.7-.3-.4-1.5-.3-2.6.3s-4.3 1.2-7 1.3c-7.5.2-7.8-.7-7.8-19.6v-15.7l8.3-.3 8.2-.3v-23l-8.2-.3-8.2-.3-.3-13.2-.3-13.2-14.6-.3c-8-.1-14.8.1-15.2.4zM821.1 991.6c-6.4 1.7-10.4 4.1-14.6 8.4l-3 3.2-.5-5.9-.5-5.8h-27l-.3 42.7-.2 42.8h31v-24.4c0-23.6.1-24.4 2.3-27.7 5.1-7.6 13.1-10 18.4-5.5l2.8 2.4.3 27.6.3 27.6h31l-.3-34.3c-.3-32.3-.4-34.4-2.4-38.7-2.6-5.6-6.7-9.7-11.9-12.1-4.9-2.3-17.5-2.4-25.4-.3zM728.7 991.6c-.4.4-.7 19.8-.7 43.1v42.3h31l-.2-42.8-.3-42.7-14.6-.3c-8-.1-14.8.1-15.2.4z"/></svg>